<?xml version="1.0" standalone="no"?>
<!DOCTYPE svg PUBLIC "-//W3C//DTD SVG 20010904//EN"
 "http://www.w3.org/TR/2001/REC-SVG-20010904/DTD/svg10.dtd">
<svg version="1.0" xmlns="http://www.w3.org/2000/svg"
 width="1080.000000pt" height="1080.000000pt" viewBox="0 0 1080.000000 1080.000000"
 preserveAspectRatio="xMidYMid meet">

<g transform="translate(0.000000,1080.000000) scale(0.100000,-0.100000)"
fill="#000000" stroke="none">
<path d="M5065 10044 c-340 -26 -585 -69 -820 -144 -873 -280 -1446 -907
-1666 -1826 -53 -225 -70 -354 -76 -580 -8 -304 17 -486 103 -744 157 -472
495 -898 1043 -1313 247 -188 428 -307 961 -632 626 -381 864 -550 1071 -755
187 -186 289 -356 320 -534 18 -107 7 -273 -26 -376 -116 -363 -383 -554 -792
-568 -353 -12 -714 104 -950 305 -132 112 -249 305 -295 488 -20 80 -23 114
-23 303 l0 213 -25 6 c-14 4 -520 129 -1125 278 -714 176 -1102 267 -1106 261
-8 -13 -33 -162 -51 -296 -20 -159 -15 -520 11 -689 43 -283 111 -500 237
-757 411 -841 1325 -1484 2537 -1784 411 -102 679 -135 1087 -135 308 0 434
11 665 56 1159 228 1968 1055 2159 2209 74 445 18 873 -164 1257 -122 257
-266 457 -500 697 -307 314 -650 573 -1315 991 -767 482 -970 628 -1185 851
-208 216 -300 408 -300 623 1 237 121 503 288 636 132 105 268 153 458 162
358 17 759 -150 964 -403 156 -193 230 -445 203 -691 -6 -54 -8 -101 -4 -104
6 -6 2232 -554 2276 -561 17 -3 21 7 32 67 40 215 54 543 32 775 -44 490 -247
982 -562 1363 -98 118 -276 296 -392 392 -593 492 -1491 839 -2435 941 -132
14 -537 26 -635 18z"/>
</g>
</svg>
